<svg width="211" height="91" viewBox="0 0 211 91" fill="none" xmlns="http://www.w3.org/2000/svg">
<path d="M4.457 74V28.816H11.625L29.417 56.528H25.769L43.497 28.816H50.729V74H40.681V45.776L42.473 46.224L30.889 64.272H24.233L12.713 46.224L14.441 45.776V74H4.457ZM66.7545 74V30.032H76.5465V74H66.7545ZM59.7145 51.216V42.896H83.5865V51.216H59.7145ZM95.6975 74.704C94.0335 74.704 92.6468 74.128 91.5375 72.976C90.4282 71.824 89.8735 70.4373 89.8735 68.816C89.8735 67.1093 90.4282 65.7013 91.5375 64.592C92.6468 63.44 94.0335 62.864 95.6975 62.864C97.4042 62.864 98.7908 63.44 99.8575 64.592C100.967 65.7013 101.522 67.1093 101.522 68.816C101.522 70.4373 100.967 71.824 99.8575 72.976C98.7908 74.128 97.4042 74.704 95.6975 74.704ZM121.157 57.552V49.744H130.885C132.122 49.744 133.253 49.488 134.277 48.976C135.301 48.464 136.112 47.7173 136.709 46.736C137.306 45.7547 137.605 44.56 137.605 43.152C137.605 41.7867 137.306 40.6133 136.709 39.632C136.112 38.6507 135.301 37.904 134.277 37.392C133.253 36.88 132.122 36.624 130.885 36.624H121.157V28.816H132.357C135.216 28.816 137.797 29.392 140.101 30.544C142.405 31.696 144.218 33.36 145.541 35.536C146.906 37.6693 147.589 40.208 147.589 43.152C147.589 46.096 146.906 48.656 145.541 50.832C144.218 52.9653 142.405 54.6293 140.101 55.824C137.797 56.976 135.216 57.552 132.357 57.552H121.157ZM113.477 74V28.816H123.525V74H113.477ZM156.608 74V42.896H166.4V74H156.608ZM161.536 38.608C160 38.608 158.72 38.096 157.696 37.072C156.715 36.0053 156.224 34.7253 156.224 33.232C156.224 31.696 156.715 30.416 157.696 29.392C158.72 28.368 160 27.856 161.536 27.856C163.072 27.856 164.331 28.368 165.312 29.392C166.294 30.416 166.784 31.696 166.784 33.232C166.784 34.7253 166.294 36.0053 165.312 37.072C164.331 38.096 163.072 38.608 161.536 38.608ZM177.136 74V42.896H186.928V74H177.136ZM182.064 38.608C180.528 38.608 179.248 38.096 178.224 37.072C177.243 36.0053 176.752 34.7253 176.752 33.232C176.752 31.696 177.243 30.416 178.224 29.392C179.248 28.368 180.528 27.856 182.064 27.856C183.6 27.856 184.859 28.368 185.84 29.392C186.821 30.416 187.312 31.696 187.312 33.232C187.312 34.7253 186.821 36.0053 185.84 37.072C184.859 38.096 183.6 38.608 182.064 38.608ZM197.663 74V42.896H207.455V74H197.663ZM202.591 38.608C201.055 38.608 199.775 38.096 198.751 37.072C197.77 36.0053 197.279 34.7253 197.279 33.232C197.279 31.696 197.77 30.416 198.751 29.392C199.775 28.368 201.055 27.856 202.591 27.856C204.127 27.856 205.386 28.368 206.367 29.392C207.349 30.416 207.839 31.696 207.839 33.232C207.839 34.7253 207.349 36.0053 206.367 37.072C205.386 38.096 204.127 38.608 202.591 38.608Z" fill="white"/>
<path d="M59.4109 14.74L53.9709 5.88H57.6109L61.7909 13.04H59.4509L63.6309 5.88H67.1909L61.7109 14.74H59.4109ZM59.0309 20V13.3H62.1709V20H59.0309ZM67.7883 20L73.3883 5.88H76.2283L81.7683 20H78.4483L74.2083 8.28H75.3483L71.0483 20H67.7883ZM70.9683 17.44V14.88H78.6683V17.44H70.9683ZM85.2623 20V5.88H87.5023L93.0623 14.54H91.9223L97.4623 5.88H99.7223V20H96.5823V11.18L97.1423 11.32L93.5223 16.96H91.4423L87.8423 11.32L88.3823 11.18V20H85.2623ZM103.37 20L108.97 5.88H111.81L117.35 20H114.03L109.79 8.28H110.93L106.63 20H103.37ZM106.55 17.44V14.88H114.25V17.44H106.55Z" fill="white"/>
<line x1="5" y1="13" x2="51" y2="13" stroke="white" stroke-width="4"/>
</svg>
