<svg width="80" height="80" viewBox="0 0 80 80" fill="none" xmlns="http://www.w3.org/2000/svg">
<path d="M56.6666 29.8233C55.4399 30.3567 54.1232 30.7233 52.7399 30.8833C54.1532 30.05 55.2333 28.73 55.7466 27.16C54.3998 27.9449 52.9303 28.4971 51.3999 28.7933C50.7562 28.1186 49.9817 27.582 49.1238 27.2164C48.2659 26.8508 47.3425 26.6637 46.4099 26.6667C42.6333 26.6667 39.5733 29.6833 39.5733 33.4C39.5733 33.9267 39.6333 34.44 39.7499 34.9333C37.041 34.8047 34.3887 34.1128 31.9621 32.9018C29.5355 31.6908 27.388 29.9873 25.6566 27.9C25.0485 28.9237 24.7283 30.0927 24.7299 31.2833C24.7299 33.6167 25.9399 35.6833 27.7733 36.8867C26.6881 36.8526 25.6261 36.5637 24.6733 36.0433V36.1267C24.6835 37.6915 25.2359 39.2045 26.2363 40.4078C27.2367 41.6112 28.6233 42.4307 30.1599 42.7267C29.1511 42.9934 28.0956 43.0321 27.0699 42.84C27.517 44.1862 28.3722 45.3598 29.5167 46.1979C30.6612 47.036 32.0382 47.4969 33.4566 47.5167C31.0231 49.3919 28.0354 50.405 24.9633 50.3967C24.4133 50.3967 23.8699 50.3633 23.3333 50.3033C26.4682 52.2876 30.1031 53.3386 33.8133 53.3333C46.3933 53.3333 53.2699 43.0733 53.2699 34.1733L53.2466 33.3C54.5876 32.3576 55.7463 31.1796 56.6666 29.8233Z" fill="white"/>
<path d="M20 13.3334C18.2318 13.3334 16.5362 14.0357 15.2859 15.286C14.0357 16.5362 13.3333 18.2319 13.3333 20V60C13.3333 61.7681 14.0357 63.4638 15.2859 64.7141C16.5362 65.9643 18.2318 66.6667 20 66.6667H60C61.7681 66.6667 63.4638 65.9643 64.714 64.7141C65.9642 63.4638 66.6666 61.7681 66.6666 60V20C66.6666 18.2319 65.9642 16.5362 64.714 15.286C63.4638 14.0357 61.7681 13.3334 60 13.3334H20ZM20 6.66669H60C63.5362 6.66669 66.9276 8.07145 69.428 10.5719C71.9285 13.0724 73.3333 16.4638 73.3333 20V60C73.3333 63.5362 71.9285 66.9276 69.428 69.4281C66.9276 71.9286 63.5362 73.3334 60 73.3334H20C16.4637 73.3334 13.0724 71.9286 10.5719 69.4281C8.07138 66.9276 6.66663 63.5362 6.66663 60V20C6.66663 16.4638 8.07138 13.0724 10.5719 10.5719C13.0724 8.07145 16.4637 6.66669 20 6.66669Z" fill="white"/>
</svg>
