<svg width="80" height="80" viewBox="0 0 80 80" fill="none" xmlns="http://www.w3.org/2000/svg">
<path d="M26 6.66669H54C64.6666 6.66669 73.3333 15.3334 73.3333 26V54C73.3333 59.1275 71.2964 64.045 67.6707 67.6708C64.045 71.2965 59.1275 73.3334 54 73.3334H26C15.3333 73.3334 6.66663 64.6667 6.66663 54V26C6.66663 20.8725 8.70353 15.955 12.3292 12.3293C15.9549 8.70359 20.8724 6.66669 26 6.66669ZM25.3333 13.3334C22.1507 13.3334 19.0984 14.5976 16.848 16.8481C14.5976 19.0985 13.3333 22.1508 13.3333 25.3334V54.6667C13.3333 61.3 18.7 66.6667 25.3333 66.6667H54.6666C57.8492 66.6667 60.9015 65.4024 63.1519 63.152C65.4023 60.9015 66.6666 57.8493 66.6666 54.6667V25.3334C66.6666 18.7 61.3 13.3334 54.6666 13.3334H25.3333ZM57.5 18.3334C58.605 18.3334 59.6648 18.7723 60.4462 19.5537C61.2276 20.3351 61.6666 21.395 61.6666 22.5C61.6666 23.6051 61.2276 24.6649 60.4462 25.4463C59.6648 26.2277 58.605 26.6667 57.5 26.6667C56.3949 26.6667 55.3351 26.2277 54.5537 25.4463C53.7723 24.6649 53.3333 23.6051 53.3333 22.5C53.3333 21.395 53.7723 20.3351 54.5537 19.5537C55.3351 18.7723 56.3949 18.3334 57.5 18.3334ZM40 23.3334C44.4202 23.3334 48.6595 25.0893 51.7851 28.2149C54.9107 31.3405 56.6666 35.5797 56.6666 40C56.6666 44.4203 54.9107 48.6595 51.7851 51.7851C48.6595 54.9107 44.4202 56.6667 40 56.6667C35.5797 56.6667 31.3405 54.9107 28.2148 51.7851C25.0892 48.6595 23.3333 44.4203 23.3333 40C23.3333 35.5797 25.0892 31.3405 28.2148 28.2149C31.3405 25.0893 35.5797 23.3334 40 23.3334ZM40 30C37.3478 30 34.8043 31.0536 32.9289 32.929C31.0535 34.8043 30 37.3479 30 40C30 42.6522 31.0535 45.1957 32.9289 47.0711C34.8043 48.9465 37.3478 50 40 50C42.6521 50 45.1957 48.9465 47.071 47.0711C48.9464 45.1957 50 42.6522 50 40C50 37.3479 48.9464 34.8043 47.071 32.929C45.1957 31.0536 42.6521 30 40 30Z" fill="white"/>
</svg>
